HIERARCHY
ROOT root
{
	OFFSET	0	13.1	24.9
	CHANNELS 6  Xposition Yposition Zposition Xrotation Yrotation Zrotation
	JOINT spine_1
	{
		OFFSET	0	9.99999	0
		CHANNELS 3  Xrotation Yrotation Zrotation
		JOINT spine_2
		{
			OFFSET	0	112	-10
			CHANNELS 3  Xrotation Yrotation Zrotation
			JOINT spine_3
			{
				OFFSET	0	206.5	19.3
				CHANNELS 3  Xrotation Yrotation Zrotation
				JOINT spine_4
				{
					OFFSET	0	110.4	14.6
					CHANNELS 3  Xrotation Yrotation Zrotation
					JOINT neck_1
					{
						OFFSET	0	71.8	-50.3
						CHANNELS 3  Xrotation Yrotation Zrotation
						JOINT neck_2
						{
							OFFSET	0	86.2	-25.8
							CHANNELS 3  Xrotation Yrotation Zrotation
							JOINT head_ee
							{
								OFFSET	0	179.8	-8.7
								CHANNELS 3  Xrotation Yrotation Zrotation
								End Site
								{
									OFFSET	1	0	0
								}
							}
						}
					}
					JOINT left_clavicle
					{
						OFFSET	-43.2	22.4	-70.8
						CHANNELS 3  Xrotation Yrotation Zrotation
						JOINT left_shoulder
						{
							OFFSET	-93.9	-5.79999	48.7
							CHANNELS 3  Xrotation Yrotation Zrotation
							JOINT left_elbow
							{
								OFFSET	-291.4	-30.8	15.2
								CHANNELS 3  Xrotation Yrotation Zrotation
								JOINT left_lowarm_twist
								{
									OFFSET	-110.7	-3.89999	13.6
									CHANNELS 3  Xrotation Yrotation Zrotation
									JOINT left_hand
									{
										OFFSET	-110.7	-3.89999	13.6
										CHANNELS 3  Xrotation Yrotation Zrotation
										JOINT left_ee
										{
											OFFSET	-80.8	-5.10001	12.1
											CHANNELS 3  Xrotation Yrotation Zrotation
											End Site
											{
												OFFSET	1	0	0
											}
										}
									}
								}
							}
						}
					}
					JOINT right_clavicle
					{
						OFFSET	43.2	22.4	-70.8
						CHANNELS 3  Xrotation Yrotation Zrotation
						JOINT right_shoulder
						{
							OFFSET	93.9	-5.79999	48.7
							CHANNELS 3  Xrotation Yrotation Zrotation
							JOINT right_elbow
							{
								OFFSET	291.4	-30.8	15.2
								CHANNELS 3  Xrotation Yrotation Zrotation
								JOINT right_lowarm_twist
								{
									OFFSET	110.7	-3.89999	13.6
									CHANNELS 3  Xrotation Yrotation Zrotation
									JOINT right_hand
									{
										OFFSET	110.7	-3.89999	13.6
										CHANNELS 3  Xrotation Yrotation Zrotation
										JOINT right_ee
										{
											OFFSET	80.8	-5.10001	12.1
											CHANNELS 3  Xrotation Yrotation Zrotation
											End Site
											{
												OFFSET	1	0	0
											}
										}
									}
								}
							}
						}
					}
				}
			}
		}
	}
	JOINT left_hip
	{
		OFFSET	-82.8	-127.5	0.300001
		CHANNELS 3  Xrotation Yrotation Zrotation
		JOINT left_knee
		{
			OFFSET	-28.2	-396.7	2.2
			CHANNELS 3  Xrotation Yrotation Zrotation
			JOINT left_ankle
			{
				OFFSET	-11.7	-411.3	35.4
				CHANNELS 3  Xrotation Yrotation Zrotation
				JOINT left_toes
				{
					OFFSET	0	-60	-88.6
					CHANNELS 3  Xrotation Yrotation Zrotation
					JOINT left_foot_ee
					{
						OFFSET	-22.5	-16.5	-42.2
						CHANNELS 3  Xrotation Yrotation Zrotation
						End Site
						{
							OFFSET	1	0	0
						}
					}
				}
			}
		}
	}
	JOINT right_hip
	{
		OFFSET	82.8	-127.5	0.300001
		CHANNELS 3  Xrotation Yrotation Zrotation
		JOINT right_knee
		{
			OFFSET	28.2	-396.7	2.2
			CHANNELS 3  Xrotation Yrotation Zrotation
			JOINT right_ankle
			{
				OFFSET	11.7	-411.3	35.4
				CHANNELS 3  Xrotation Yrotation Zrotation
				JOINT right_toes
				{
					OFFSET	0	-60	-88.6
					CHANNELS 3  Xrotation Yrotation Zrotation
					JOINT right_foot_ee
					{
						OFFSET	22.5	-16.5	-42.2
						CHANNELS 3  Xrotation Yrotation Zrotation
						End Site
						{
							OFFSET	1	0	0
						}
					}
				}
			}
		}
	}
}
MOTION
Frames: 16
Frame Time: 0.02
3247.59 773.903 -395.596 -170.131 -61.9804 -159.584 2.52398 -0.791851 -6.04217 2.54418 -0.406495 -6.08013 2.58361 0.60929 -6.06323 2.53252 -0.354103 -6.08339 -4.31564 6.07796 2.82686 -4.27982 8.98235 3.88913 -0.0 0.0 -0.0 10.1419 7.39081 19.3991 -14.9784 -10.1525 71.2795 1.59336 -38.2813 0.553046 -14.7686 -0.74772 1.72881 -0.378344 9.99205 1.71296 -0.0 0.0 -0.0 -3.89771 -2.94471 7.01121 0.199956 8.72721 -67.6046 0.954541 25.3068 -0.214304 52.6153 1.16234 6.38666 0.926987 -10.3932 -10.282 0.0 0.0 0.0 4.01079 -28.5544 -12.2473 -5.92661 0.19825 0.887551 -22.0704 19.4359 3.37893 20.6372 -0.0 -0.0 -0.0 0.0 -0.0 21.4528 8.72283 -7.91292 -20.3504 -0.291308 -3.09296 -7.15864 20.7865 -1.22023 -8.41228 0.0 0.0 0.0 0.0 0.0 
3256.19 775.708 -391.59 -170.454 -62.5742 -160.643 2.40956 -0.946774 -5.90923 2.42879 -0.56952 -5.95726 2.48527 0.437417 -5.96838 2.43596 -0.508946 -5.96272 -3.12811 5.38441 3.75277 -3.08148 6.87403 4.68409 -0.0 0.0 -0.0 10.1726 9.33893 19.2556 -15.7427 -9.78344 71.5416 1.36391 -34.0428 0.417566 -13.8252 -0.686803 1.62456 -0.564154 11.7912 1.28597 -0.0 0.0 -0.0 -3.86291 -1.40395 7.24357 -0.532782 8.77868 -66.8513 0.989101 26.103 -0.229294 54.0583 1.27442 6.53365 1.39526 -9.31578 -12.9556 0.0 0.0 0.0 3.76475 -28.7352 -11.5642 -6.11365 0.203005 0.915861 -20.8116 20.5639 3.19783 21.3253 -0.0 -0.0 -0.0 0.0 -0.0 20.6533 8.75184 -7.29513 -21.3071 -0.277815 -3.23912 -7.18863 16.9445 -1.18332 -8.62788 0.0 0.0 0.0 0.0 0.0 
3265.27 776.367 -383.253 -171.611 -62.0153 -162.058 2.29834 -0.86185 -5.73162 2.31647 -0.496008 -5.77465 2.36439 0.491747 -5.77501 2.31814 -0.424913 -5.7803 -1.62575 5.13172 2.31283 -1.59005 7.40164 3.08981 -0.0 0.0 -0.0 10.3337 10.9169 19.3732 -18.2545 -12.6461 70.0643 1.20894 -30.9151 0.334315 -12.1637 -0.583741 1.4386 -0.140771 11.0547 3.67054 -0.0 0.0 -0.0 -3.1392 -0.506162 6.00109 -3.78443 10.7305 -65.4491 1.14584 29.5789 -0.302527 53.4711 1.22836 6.47417 1.61173 -8.58922 -14.1293 0.0 0.0 0.0 3.17526 -28.211 -11.1562 -7.53679 0.236151 1.13174 -22.6225 23.1387 3.51427 23.8552 -0.0 -0.0 -0.0 0.0 -0.0 19.0344 4.3608 -5.92918 -21.0177 -0.282154 -3.19493 -7.26088 15.6732 -1.18308 -10.1089 0.0 0.0 0.0 0.0 0.0 
3275.16 775.047 -375.771 -173.186 -60.7067 -164.364 2.23034 -0.809523 -5.57416 2.2475 -0.453757 -5.61421 2.29031 0.513509 -5.60907 2.24663 -0.377343 -5.61984 -3.00629 5.16413 4.34535 -2.95087 5.99661 5.26412 -0.0 0.0 -0.0 10.2206 14.4266 18.7003 -20.0425 -12.97 68.9393 1.06577 -27.8312 0.264068 -9.54205 -0.432236 1.13939 0.487149 6.13971 5.7553 -0.0 0.0 -0.0 -2.77706 2.52349 5.80369 -3.25576 8.85086 -65.7219 1.099 28.5636 -0.279768 55.1457 1.36132 6.64253 1.8687 -3.98757 -14.1461 0.0 0.0 0.0 3.83458 -31.2755 -9.13705 -12.7224 0.311351 1.92361 -21.2848 26.5161 3.36245 25.4868 -0.0 -0.0 -0.0 0.0 -0.0 16.6042 -0.533644 -4.13472 -19.2307 -0.303998 -2.92162 -5.5815 18.2329 -0.926135 -10.2781 0.0 0.0 0.0 0.0 0.0 
3276.83 776.605 -367.405 -173.093 -61.7855 -164.091 2.26 -0.860608 -5.49202 2.27662 -0.509941 -5.53547 2.32423 0.441075 -5.54136 2.28167 -0.438234 -5.54158 -1.7965 4.72506 1.5673 -1.76741 7.27633 2.25947 -0.0 0.0 -0.0 10.3483 14.9842 18.8443 -20.2521 -11.8971 68.8038 0.92472 -24.6112 0.20172 -9.75521 -0.44404 1.16397 0.254862 5.77618 4.08356 -0.0 0.0 -0.0 -3.23237 3.32848 6.85268 -3.95688 9.97367 -66.6732 1.18775 30.4705 -0.323501 53.0906 1.19884 6.43538 1.88311 -5.98189 -14.9969 0.0 0.0 0.0 1.8927 -35.1558 -9.9572 -12.7575 0.311616 1.92898 -20.9012 29.1583 3.35478 26.9212 -0.0 -0.0 -0.0 0.0 -0.0 15.7449 1.5098 -5.37946 -19.095 -0.305309 -2.90084 -2.65821 12.2023 -0.418383 -11.3422 0.0 0.0 0.0 0.0 0.0 
3276.86 777.471 -354.497 -173.021 -62.6504 -164.191 2.41178 -0.974587 -5.34837 2.42747 -0.63279 -5.39934 2.485 0.28091 -5.42894 2.44437 -0.578734 -5.40538 -2.85207 6.11076 4.80617 -2.78115 7.33823 5.87363 -0.0 0.0 -0.0 10.3392 12.5993 19.1662 -20.1688 -14.6909 68.4529 0.593462 -16.3826 0.085428 -8.55997 -0.379042 1.02559 0.493738 7.57916 6.37162 -0.0 0.0 -0.0 -2.85779 2.06547 5.88865 -5.82796 15.5136 -65.899 1.24601 31.6831 -0.353575 54.4582 1.30613 6.57387 1.84264 -3.6553 -13.8411 0.0 0.0 0.0 0.580926 -35.6819 -10.8778 -12.7799 0.311783 1.93242 -18.5522 29.4804 2.98105 26.5953 -0.0 -0.0 -0.0 0.0 -0.0 16.0527 2.04378 -5.86213 -20.9509 -0.283124 -3.18473 -1.35226 9.56888 -0.20877 -10.6229 0.0 0.0 0.0 0.0 0.0 
3283.05 776.748 -345.695 -173.784 -62.27 -165.187 2.35177 -0.807149 -5.2285 2.36685 -0.473283 -5.26911 2.40848 0.42402 -5.27329 2.36993 -0.412929 -5.27417 -1.09055 6.73331 3.25264 -1.02481 9.47533 4.25504 -0.0 0.0 -0.0 9.99713 13.7644 18.3951 -18.1165 -10.3215 68.8316 0.436725 -12.2075 0.0467015 -7.11695 -0.304446 0.856785 -0.00185774 6.80321 2.82436 -0.0 0.0 -0.0 -3.03902 0.7277 6.02032 -6.47986 16.1233 -65.9481 1.40423 34.8211 -0.440363 52.9476 1.18782 6.42075 1.76288 -4.47695 -13.6131 0.0 0.0 0.0 1.3586 -29.9763 -11.0916 -13.2861 0.3152 2.01002 -16.6593 24.0637 2.59263 30.7251 -0.0 -0.0 -0.0 0.0 -0.0 13.6803 -3.26086 -4.81326 -18.7393 -0.30851 -2.84636 2.64441 13.8146 0.414936 -12.5311 0.0 0.0 0.0 0.0 0.0 
3285.59 776.067 -345.275 -174.275 -63.4333 -165.501 2.24513 -0.851845 -5.28991 2.26055 -0.513999 -5.33323 2.30695 0.404082 -5.34265 2.26741 -0.443526 -5.33953 -0.779231 6.94467 1.61175 -0.703272 11.1445 2.51607 -0.0 0.0 -0.0 10.1004 13.7864 18.5759 -18.3996 -9.09667 69.21 0.377749 -10.5991 0.0350399 -6.91543 -0.294368 0.833065 0.384448 6.22508 5.11537 -0.0 0.0 -0.0 -2.01227 1.77318 4.16591 -7.32993 15.4386 -63.9751 1.28563 32.4901 -0.374622 52.844 1.17985 6.41014 1.81358 -3.72954 -13.6717 0.0 0.0 0.0 0.896121 -28.4864 -11.1555 -13.0466 0.313669 1.9733 -13.6564 25.8592 2.13958 30.7089 -0.0 -0.0 -0.0 0.0 -0.0 13.9096 -4.1422 -4.55478 -20.7864 -0.285462 -3.15959 3.09468 8.48028 0.469257 -12.6199 0.0 0.0 0.0 0.0 0.0 
3283.85 777.577 -340.797 -174.148 -63.185 -165.723 2.21742 -0.814208 -5.08284 2.23165 -0.489559 -5.1242 2.27421 0.395404 -5.1323 2.23772 -0.419014 -5.13043 -1.56909 7.64563 3.09964 -1.48976 11.3026 4.22946 -0.0 0.0 -0.0 10.4664 13.6041 19.2566 -18.9328 -7.38736 68.3398 0.266966 -7.53365 0.0175766 -6.91492 -0.294343 0.833005 0.208509 5.45408 3.64795 -0.0 0.0 -0.0 -1.40393 2.01918 3.00186 -6.04743 17.0796 -63.7409 1.2146 31.0332 -0.337228 53.2022 1.20747 6.44677 1.78206 -6.12389 -14.3647 0.0 0.0 0.0 1.39197 -26.4515 -11.2174 -13.4381 0.316092 2.03332 -13.3375 21.9451 2.05058 31.4615 -0.0 -0.0 -0.0 0.0 -0.0 14.1867 -4.29461 -4.4132 -21.2424 -0.278804 -3.22925 4.34156 10.5442 0.663428 -13.012 0.0 0.0 0.0 0.0 0.0 
3283.34 778.521 -336.354 -175.326 -63.5378 -167.123 2.02335 -0.832431 -5.10051 2.03768 -0.506626 -5.14299 2.08272 0.399017 -5.15243 2.04594 -0.418612 -5.15088 -3.80076 7.9514 2.82571 -3.74058 12.3573 4.14929 -0.0 0.0 -0.0 10.4637 14.0238 19.1908 -18.3035 -5.93911 67.843 0.199164 -5.63471 0.00980127 -6.1756 -0.258089 0.745689 0.382393 5.58987 4.84573 -0.0 0.0 -0.0 -1.04571 0.641595 2.10735 -5.58671 18.1696 -62.1405 1.24401 31.642 -0.352524 52.4606 1.15054 6.37074 1.89422 -7.13832 -15.4995 0.0 0.0 0.0 1.01024 -23.157 -11.3428 -12.6037 0.310433 1.90542 -10.0875 22.5166 1.54897 32.3946 -0.0 -0.0 -0.0 0.0 -0.0 13.8345 -4.25703 -4.1258 -21.5225 -0.274439 -3.27201 3.26641 8.17793 0.494266 -13.9294 0.0 0.0 0.0 0.0 0.0 
3280.5 777.876 -331.62 -174.084 -64.3616 -166.069 2.056 -0.717031 -4.85705 2.06903 -0.40689 -4.89271 2.10319 0.452015 -4.88876 2.07 -0.324792 -4.89883 -4.84905 6.81311 3.90913 -4.79795 9.57288 5.14655 -0.0 0.0 -0.0 10.3349 12.9037 19.1173 -17.9194 -4.11566 67.5346 0.232029 -6.55697 0.0132913 -3.78801 -0.148772 0.460683 0.902721 6.602 8.67419 -0.0 0.0 -0.0 -1.14817 -1.09384 2.06428 -6.42353 18.5264 -62.5221 1.44213 35.5394 -0.462197 51.836 1.10337 6.30614 2.11177 -5.29984 -16.3035 0.0 0.0 0.0 3.5649 -23.0913 -11.4321 -14.7159 0.321147 2.22931 -11.1899 24.2915 1.7346 30.6382 -0.0 -0.0 -0.0 0.0 -0.0 12.2468 -5.6031 -4.73402 -18.0552 -0.313716 -2.74152 6.3683 7.13345 0.949328 -15.0273 0.0 0.0 0.0 0.0 0.0 
3276.66 779.833 -331.143 -173.416 -64.9078 -165.852 1.89589 -0.721131 -4.85859 1.90892 -0.410884 -4.89452 1.94401 0.462001 -4.88997 1.9108 -0.31512 -4.9016 -5.3211 6.82757 3.99411 -5.27174 9.59483 5.26302 -0.0 0.0 -0.0 10.4215 13.3846 19.207 -18.3916 -3.90586 67.6778 0.22191 -6.27336 0.0121607 -4.23384 -0.16828 0.514239 0.802014 6.5234 7.97907 -0.0 0.0 -0.0 -0.774007 -1.01131 1.35927 -6.07655 18.5046 -61.4546 1.44529 35.5988 -0.464037 51.8522 1.10458 6.30781 2.18105 -5.71063 -16.9317 0.0 0.0 0.0 4.65138 -19.3479 -11.362 -13.9562 0.318669 2.11277 -8.03297 20.4944 1.22016 30.2488 -0.0 -0.0 -0.0 0.0 -0.0 11.8293 -7.62451 -3.9981 -16.6146 -0.320583 -2.52061 7.02736 11.8279 1.07268 -14.7346 0.0 0.0 0.0 0.0 0.0 
3275.44 776.077 -330.03 -173.678 -65.7714 -166.306 1.92258 -0.695714 -4.82832 1.93546 -0.387438 -4.86269 1.96822 0.477455 -4.8547 1.93547 -0.294309 -4.8692 -5.31803 6.8152 4.0591 -5.26753 9.52295 5.32647 -0.0 0.0 -0.0 10.3636 13.522 19.0834 -18.2981 -3.84461 67.7093 0.218556 -6.17928 0.011797 -4.22896 -0.168064 0.513654 0.796613 6.56253 7.95879 -0.0 0.0 -0.0 -0.749692 -0.956967 1.31995 -6.20493 18.5098 -61.28 1.44715 35.6336 -0.465117 51.8558 1.10485 6.30818 2.18485 -5.68612 -16.9487 0.0 0.0 0.0 3.92829 -19.0941 -11.4935 -13.9787 0.318764 2.11623 -7.93194 20.5298 1.20479 30.3043 -0.0 -0.0 -0.0 0.0 -0.0 11.4931 -7.67321 -3.82928 -16.5995 -0.320626 -2.51829 6.94762 11.8032 1.06064 -14.7277 0.0 0.0 0.0 0.0 0.0 
3277.63 775.12 -323.086 -173.587 -67.5329 -166.646 1.88195 -0.668459 -4.83279 1.89487 -0.359954 -4.86543 1.92542 0.508722 -4.85216 1.89268 -0.263032 -4.87161 -6.22229 6.84972 3.98431 -6.17967 9.75541 5.31274 -0.0 0.0 -0.0 10.1937 14.1732 18.6886 -18.3578 -3.17666 67.7417 0.243716 -6.88415 0.014659 -3.37935 -0.131258 0.411462 0.799903 5.50134 7.56338 -0.0 0.0 -0.0 -0.422224 0.038536 0.81938 -8.56299 18.8602 -59.7412 1.46068 35.8865 -0.473029 52.4422 1.14914 6.36884 2.38505 -6.08067 -18.475 0.0 0.0 0.0 3.31542 -18.6016 -11.4071 -12.7946 0.311892 1.93467 -7.41423 22.2815 1.1331 30.883 -0.0 -0.0 -0.0 0.0 -0.0 11.2488 -9.93223 -3.39307 -18.5163 -0.310345 -2.8122 9.33938 5.4524 1.36759 -14.454 0.0 0.0 0.0 0.0 0.0 
3280.3 772.968 -321.614 -172.256 -68.0265 -165.087 2.01614 -0.716292 -4.87125 2.02925 -0.405253 -4.90684 2.0635 0.459506 -4.90207 2.03013 -0.319489 -4.91315 -4.8616 6.39427 4.3005 -4.80583 8.508 5.47448 -0.0 0.0 -0.0 10.2294 14.2036 18.7475 -18.7769 -3.37806 67.6205 0.228056 -6.44566 0.0128415 -3.33814 -0.129511 0.406492 0.79261 6.88859 8.05993 -0.0 0.0 -0.0 -0.673679 1.33067 1.47408 -8.88754 18.0787 -60.5671 1.38494 34.4505 -0.429398 52.4985 1.15342 6.37463 2.75834 -5.3025 -20.8006 0.0 0.0 0.0 3.32165 -17.7599 -12.142 -10.8134 0.292009 1.63135 -8.09818 22.9162 1.2423 30.844 -0.0 -0.0 -0.0 0.0 -0.0 11.4515 -10.7228 -3.60631 -18.6887 -0.308939 -2.8386 9.93515 6.29164 1.45685 -14.8523 0.0 0.0 0.0 0.0 0.0 
3277.04 772.703 -319.403 -172.31 -69.0341 -165.603 1.89177 -0.678451 -4.62987 1.90361 -0.382794 -4.66356 1.93477 0.449493 -4.65761 1.90463 -0.290905 -4.67017 -5.69986 6.62217 3.98735 -5.65393 9.26752 5.24159 -0.0 0.0 -0.0 10.089 14.4334 18.4669 -18.2857 -3.22551 67.5883 0.266346 -7.51635 0.0174954 -3.13935 -0.121136 0.382499 0.805283 7.3548 8.32497 -0.0 0.0 -0.0 -0.968351 1.33402 2.05087 -8.97629 16.9016 -61.6107 1.46621 35.9893 -0.476271 51.9571 1.11246 6.3187 2.49473 -3.76574 -18.3787 0.0 0.0 0.0 3.76714 -17.1101 -11.6148 -9.68597 0.276016 1.4591 -10.0378 23.44 1.54757 32.1019 -0.0 -0.0 -0.0 0.0 -0.0 11.3484 -9.64172 -3.68098 -18.9362 -0.30678 -2.87651 10.7417 3.12319 1.55113 -14.57 0.0 0.0 0.0 0.0 0.0 
